<?xml version="1.0" encoding="utf-8"?>
<!-- Generator: Adobe Illustrator 25.1.0, SVG Export Plug-In . SVG Version: 6.00 Build 0)  -->
<svg version="1.1" id="Layer_1" xmlns="http://www.w3.org/2000/svg" xmlns:xlink="http://www.w3.org/1999/xlink" x="0px" y="0px"
	 viewBox="0 0 740 313.3" style="enable-background:new 0 0 740 313.3;" xml:space="preserve">
<style type="text/css">
	.st0{fill-rule:evenodd;clip-rule:evenodd;fill:#FFFFFF;}
	.st1{fill:#FFFFFF;}
</style>
<g>
	<g>
		<path class="st0" d="M456.5,168c-2.9,3.1-5.8,6.3-8.8,9.3c-7.5,7.7-15.6,14.7-25,19.9c-3.4,1.8-7,3.4-10.8,4
			c-2.4,0.4-4.9,0.4-7.2-0.7c-2.7-1.1-4.2-3.4-5.2-6.1c-1.5-4.2-1.6-8.5-1-12.8c0.4-2.8,1.1-5.4,1.7-8.2c0.1-0.2,0-0.6,0-1.3
			c-1.4,1.1-2.4,2.1-3.5,3.1c-6.6,6-13.4,11.9-20.7,17c-4.6,3.1-9.3,6-14.7,7.6c-4.8,1.5-9.8,2.2-14.8,1.2
			c-6.4-1.3-10.3-5.3-12.3-11.4c-1.6-5.2-1.1-10.4,0.4-15.6c3.7-12,10.4-22.4,18.8-31.7c0.9-1,1.9-2,2.9-3.1
			c0.1-0.1,0.1-0.2,0.2-0.6c-0.5-0.3-1-0.7-1.5-1.1c-1.7-1.3-3.5-2.4-5-3.9c-3.7-3.6-5.2-7.9-4-13.1c0.1-0.5,0.1-0.9,0.2-1.8
			c-0.8,0.4-1.2,0.8-1.8,1.1c-4.3,3-8.2,6.7-11.6,10.6c-4.4,4.7-8.5,9.5-12.5,14.4c-5.2,6.4-10.3,12.7-15.4,19.2
			c-4.4,5.5-8.7,11.1-13.1,16.6c-4.8,6.2-9.7,12.2-14.5,18.4c-1,1.3-2.1,1.8-3.7,1.8c-4.7-0.1-9.5,0-14.3,0h-1.9
			c-0.7-1,0.2-1.4,0.6-2c1.8-2.4,3.8-4.8,5.6-7.1c7.3-9.4,14.6-18.7,21.9-27.9c7-9.1,14.2-18,21.2-27.1c3.4-4.3,6.8-8.6,10-13
			c1.9-2.5,3.5-5.3,4-8.5c0.1-0.2,0.1-0.4,0.2-0.6c0.6-3.8-1.5-5.9-5.5-5.4c-2.3,0.2-4.3,1.2-6.1,2.5c-4.2,3-8.4,6.1-12.6,9.3
			c-5.7,4.3-11.4,8.7-18,11.6c-3,1.4-4.8,3.2-6,6.2c-2.5,5.6-6,10.8-9.7,15.7c-5.5,7.6-11.7,14.6-18.4,21
			c-6.7,6.4-13.6,12.4-21.3,17.5c-5.1,3.4-10.5,6.3-16.5,7.7c-3.8,0.9-7.7,1.6-11.7,0.7c-3.6-0.9-6.4-2.8-8.6-5.8
			c-3.1-4.1-4.4-8.9-5-13.9c-0.2-1.5-0.4-3-0.4-4.5c0-1.7,0.2-3.4,0.3-5.2c0-0.7,0-1.4,0.1-2.3c-0.5,0.4-0.9,0.5-1.2,0.8
			c-7.4,7.8-15.9,14.5-24.6,20.8c-5.2,3.8-10.6,7.5-16,11.1c-0.8,0.6-1.6,1-2.5,1.2c-0.8,0.4-1.7,0.2-2.1-0.7
			c-0.4-0.8-0.2-1.6,0.5-2.2c0.6-0.5,1.2-1,1.8-1.4c9.6-6.1,18.7-12.9,27.4-20.4c6-5.1,11.7-10.5,16.2-16.9
			c3.1-4.2,5.9-8.6,8.8-12.9c3.4-5.1,7.1-9.7,11.3-14.1c10.2-10.7,22.1-19,35.5-25.3c5.9-2.8,12.3-5,18.8-5.9
			c5.3-0.6,10.8-0.7,15.6,2.1c3.3,1.9,5.3,4.8,6.4,8.4c1.2,4.3,0.8,8.5-0.2,12.8c-0.2,0.5-0.2,1-0.3,1.8c2.3-0.8,4.3-1.9,6.1-3.2
			c5.1-3.7,10.1-7.4,15.2-11.2c3.7-2.8,7.4-5.7,11.6-7.9c2.5-1.3,5.2-2.2,8.1-2.4c4.8-0.5,10.3,2.9,12,7.4c1.2,3.2,1.9,6.4,1.4,9.9
			c-0.1,0.8-0.1,1.7-0.2,3c1.3-1,2.2-1.8,3.1-2.5c5.2-4.7,10.5-9.4,16.5-13.1c3.7-2.3,7.7-4,12.1-4.4c2.4-0.2,4.7,0.4,7.1,0.9
			c0.4,0.1,1.1,0.6,1.1,0.9c0,0.5-0.4,1-0.7,1.5c-0.2,0.3-0.5,0.4-0.8,0.6c-6,4-10.5,9.2-13.7,15.7c-0.7,1.3-1,2.8-1.5,4.2
			c-0.9,2.6,1.2,5.6,4.4,5.6c2,0,3.8-0.8,5.3-1.9c2.7-1.9,5.3-4,7.9-6c8.6-6.4,17.7-12,27.6-16.1c5.5-2.4,11.1-4.3,17-5.2
			c3.4-0.5,6.9-0.8,10.2,0.4c4.5,1.5,7.1,4.8,8.3,9.3c0.2,0.9,0.5,1.9,0.8,3.1c0.6-0.6,1-0.9,1.3-1.4c7.4-9.7,14.8-19.5,22.2-29.2
			c8.3-10.8,16.5-21.8,24.9-32.6c7.1-9.4,14.4-18.8,21.6-28.2c3.1-4.1,2.1-3.2,6.8-3.4c4.5,0,9,0,13.5,0h1.9c0.5,0.9,0,1.3-0.4,1.8
			c-5.6,7.5-11.2,14.8-16.7,22.2c-6.7,8.9-13.4,17.9-20.1,26.9c-8.5,11.3-17,22.6-25.5,33.9c-8.4,11.2-16.8,22.3-25.1,33.5
			c-8.7,11.6-17.5,23.1-26,34.7c-2.8,3.8-5.2,7.8-7.6,11.8c-0.7,1.1-1,2.5-1.3,3.8c-0.4,1.6,0.1,3,1,4.2c0.7,1,1.7,1.4,3,1.5
			c3.3,0.1,6.3-1,9.1-2.3c5-2.4,9.4-5.6,13.6-9.1c13.1-10.9,24.4-23.5,33.7-37.8c6.7-10,15.2-18.3,24.8-25.5
			c7.7-5.7,16-10.5,25-14.1c4.9-2,10-3.7,15.4-4.3c5.3-0.6,10.5-0.5,15.3,2.3c3.8,2.2,5.8,5.7,6.6,10c0.7,3.9,0.4,7.8-0.8,11.6
			c-0.1,0.3,0,0.7,0,1.2c2.1-0.6,3.8-1.7,5.5-2.7c5.8-3.6,11-7.9,16.4-12c3.1-2.3,6.2-4.5,9.5-6.6c2.7-1.8,5.7-3,9.1-3.1
			c6.3-0.3,12.1,2.5,13.8,9.9c0.8,3.4,0.8,6.8,0.1,10.3c-0.2,0.6-0.1,1.2-0.2,2.2c0.7-0.4,1.2-0.6,1.5-1
			c7.2-6.1,14.6-11.8,22.9-16.3c3.8-2,7.6-3.8,11.9-4.6c4.5-0.8,8.7,0.1,11.8,3.5c2.3,2.4,3.4,5.3,3.6,8.6
			c0.2,5.5-1.5,10.5-3.8,15.4c-4.2,8.9-10.1,16.6-16.7,23.7c-7.1,7.9-14.5,15.3-21.8,22.9c-2.5,2.7-4.8,5.5-7,8.3
			c-1.1,1.4-1.8,2.9-1.7,4.7c0.2,2.4,2,4.6,4.4,4.8c2.6,0.3,5.2,0.1,7.7-0.4c6.7-1.5,12.8-4.4,18.7-7.7c3.4-2,6.7-4.3,10.2-6.3
			c1.3-0.8,1.9-1.7,2.2-3.1c1-5.5,3.7-10.3,7.1-14.5c3.3-4.1,7.2-7.3,12.3-8.9c3.3-1.1,6.6-1.2,9.9,0.1c1,0.4,1.7,0.2,2.4-0.5
			c4.7-4.5,9.4-9,13.9-13.7c3.9-4,7.8-8.1,11.5-12.4c4-4.6,8-9.3,11.9-14.1c4.8-6.1,9.4-12.2,14.2-18.3c1.1-1.4,2.4-2.8,3.7-4
			c0.6-0.6,1.5-1.3,2.5-0.5c0.7,0.5,1,1.2,0.6,1.9c-0.3,0.6-0.7,1-1.1,1.5c-1.2,1.9-2.7,3.7-3.9,5.6c-2.9,4.3-3.2,9.1-2.1,14.1
			c0.9,3.6,2,7.2,2.7,10.8c0.6,3.2,1,6.5,1.2,9.7c0.2,2.9,0.1,5.9,0,8.7c-0.1,4.6-1.3,9-2.7,13.2c-2.4,6.8-5.9,13.2-10.2,18.9
			c-5.2,6.9-11.5,12.7-19,17.2c-6.2,3.7-12.9,6.2-20,7.7c-5.3,1-10.8,1.4-16.2,0.9c-6.6-0.6-12.4-3.4-16-9.3c-1-1.6-1.6-3.4-2.3-5.2
			c-0.6-1.6-0.8-1.7-2.2-0.9c-3.1,2-6.3,4-9.5,5.8c-6.1,3.6-12.4,6.4-19.3,7.8c-3.7,0.7-7.5,0.9-11.3,0.3
			c-6.9-1.3-11.5-7.7-11.2-14.2c0.3-5.9,2.6-11,5.7-15.9c3.3-5.2,7.1-9.9,11.3-14.3c3.5-3.7,6.8-7.4,10.3-11.2
			c4.1-4.5,8.3-8.9,12.4-13.4c2.9-3.2,5.8-6.6,8.6-10.1c1.7-2.1,2.8-4.7,3.2-7.5c0.5-3.1-2.1-5.2-4.2-5c-1.9,0.2-3.7,0.6-5.5,1.2
			c-5,1.7-9.5,4.3-13.8,7.2c-8,5.3-15,11.7-21.7,18.7c-7.1,7.3-13.3,15.3-19.6,23.2c-10.2,13-20.5,26.1-30.7,39.1
			c-1.1,1.3-2.3,2.1-4.1,2c-4.7-0.1-9.5,0-14.3,0h-1.9c-0.4-1,0.2-1.4,0.6-1.9c4.6-6,9.3-11.9,13.9-17.8c4.5-5.7,9-11.3,13.4-17
			c8.6-10.9,17.3-21.9,25.9-32.9c3.1-4,6.3-7.9,8.5-12.6c0.7-1.6,1.4-3.2,1.3-5.1c0-3.5-2.2-5.4-5.7-4.5c-1.5,0.4-3.2,0.9-4.4,1.7
			c-3.8,2.5-7.5,5.1-11.1,7.9c-6.3,4.7-12.5,9.5-19.5,13.1c-1.4,0.7-2.7,1.4-4.1,1.9c-0.9,0.4-1.5,1-1.9,1.9
			c-4.5,10-10.7,18.9-17.9,27.2c-10.1,11.8-21.3,22.3-34.3,30.8c-3.9,2.6-8.1,4.7-12.5,6.1c-3.8,1.2-7.8,2.2-11.8,1.8
			c-5.5-0.4-9.6-3.2-12.3-7.8c-1.9-3.2-3-6.7-3.5-10.3c-0.4-2.4-0.7-4.8-0.7-7.3c-0.1-1.9,0.3-3.9,0.5-5.8c0-0.8,0.1-1.6,0.2-2.4
			C456.7,168.1,456.6,168.1,456.5,168 M270.6,116.9c-0.4-1.6-0.6-2.8-0.9-3.9c-0.9-3.7-4.8-5.6-8.2-5c-4.3,0.8-8.2,2.3-11.8,4.6
			c-6.6,3.9-12.5,8.6-17.9,13.9c-4.7,4.6-9.3,9.5-13.6,14.5c-8.7,10.2-16.3,21.2-22,33.5c-1.9,4.2-3.6,8.6-4.2,13.2
			c-0.2,2.1,0.2,4.1,1.2,5.9c0.9,1.7,2.4,2.8,4.3,3.2c2.5,0.6,5,0.3,7.4-0.4c4.9-1.3,9.4-3.8,13.5-6.7c8.2-5.8,15.2-12.9,21.7-20.3
			c4.9-5.7,9.5-11.6,13.8-17.8c5.7-8.3,11.1-16.7,14.5-26.2C269.4,122.6,269.9,119.5,270.6,116.9 M467.1,188.9
			c0.1,0.6,0.1,1.4,0.3,2c1.2,5,4.2,6.3,8.3,6.1c5.2-0.2,9.8-2.3,14.2-5c8.5-5.2,15.7-11.9,22.4-19.3c6.6-7.2,12.7-15,18.1-23.1
			c5.4-8,10.4-16.3,13.6-25.5c1-3.1,1.7-6.3,1.3-9.7c-0.7-4.5-4.4-7.3-8.8-6.5c-5.4,0.9-10,3.4-14.4,6.2
			c-7.8,5.3-14.7,11.6-21.3,18.5c-5.9,6.2-11.4,12.7-16.3,19.7c-6,8.5-11.4,17.4-15.1,27.2C468.2,182.5,467.4,185.6,467.1,188.9
			 M353,196.5c3.7-0.1,7.1-1.4,10.4-2.8c6.7-3.1,12.7-7.2,18.4-11.8c7.7-6.2,14.7-13,20.9-20.6c6.2-7.6,12.2-15.4,18.1-23.2
			c2.6-3.5,4.8-7.2,6.9-10.9c1.8-3.1,2.8-6.5,2.6-10.1c-0.2-3.6-1.8-6.5-5.5-7.4c-1.3-0.4-2.8-0.3-4.2-0.1c-3.6,0.5-6.8,1.9-10,3.7
			c-6.8,4-12.5,9.2-18.2,14.5c-8.5,8.3-16.5,16.9-24.3,25.9c-5.7,6.5-11.1,13.1-15.7,20.4c-2.5,4-4.9,8.2-6.1,12.9
			c-0.6,2.4-0.8,4.8,0.9,6.9C348.6,195.9,350.6,196.7,353,196.5 M669.4,171.5c-0.2,0.1-0.4,0.1-0.5,0.2c-4.9,3.7-9.7,7.4-14.5,11.1
			c-0.4,0.3-0.6,1-0.7,1.5c0,0.9,0.1,1.8,0.3,2.6c1.3,5.7,6.1,9,12,9.9c4.5,0.7,8.7-0.4,12.8-2.2c6.2-2.8,11.6-6.6,16.5-11.3
			c6.8-6.3,12.3-13.6,16.9-21.6c4.6-8.3,8.6-16.9,11.5-25.9c1.1-3.7,2-7.4,2.7-11.2c0.6-2.9,1-6,1.2-9c0.1-1.7,0.7-3.3,0.3-5.4
			c-0.8,0.8-1.3,1.3-1.7,1.8c-3,3.9-6,7.7-9.1,11.5c-7.2,8.8-14.7,17.3-22.8,25.4c-3.2,3.2-6.6,6.4-9.8,9.6
			c-0.8,0.7-1.1,1.3-0.7,2.5c0.6,1.4,0.4,3.1-0.2,4.6C681.3,170.8,675.8,173.7,669.4,171.5 M665.8,164.8c-4.6,1.4-10,7.4-10.9,12.1
			c0.6-0.3,1.1-0.4,1.4-0.7c3-2.3,6-4.6,8.9-7C666.7,168.1,666.8,166.8,665.8,164.8"/>
		<path class="st0" d="M58.1,159.8c-1-2.1-2.8-2.9-4.7-2.8c-2.4,0.1-4.9,0.3-7.2,0.9c-6.3,1.7-11.7,5-15.8,10.1
			c-4,4.8-6,10.5-6,16.8c0,4.3,0.4,8.6,2,12.7c1.6,4.3,4,7.9,7.4,10.8c4.4,3.8,9.6,6.2,15.4,7.2c11.6,2.1,22.7,0.4,33.5-4.1
			c9-3.7,16.9-9.2,24.3-15.6c10.8-9.3,19.7-20.3,28-31.8c8.1-11.3,16.3-22.6,24.6-33.8c3.5-4.8,7.1-9.3,10.7-14.1
			c0.3-0.5,0.7-0.9,1-1.4c-0.1-0.1-0.2-0.2-0.3-0.3c-0.6,0.5-1.2,0.9-1.8,1.4c-11.5,9.8-23.6,18.5-36.9,25.6
			c-6.3,3.5-12.9,6.3-19.8,8.4c-5.8,1.7-11.9,2.7-18,2.2c-9.9-0.8-17.7-5.4-23.9-12.9c-4.2-5.3-7-11.3-8.2-17.9
			c-0.5-2.9-0.7-5.9-0.2-8.9c0.3-1.9,0.3-3.8,0.4-6c-0.6-0.1-1.2-0.3-1.8-0.4c-5-0.2-9.8-1.1-14.6-2.3c-6-1.4-11.8-3.5-17.4-6.1
			c-6.8-3.2-12.9-7.3-18.1-12.8C5.9,79.8,2.5,74,1,67.3c-3-14,0.5-26.6,9.5-37.6c6-7.2,13.6-12.5,22-16.8c8-4.1,16.5-7,25.2-9.1
			c5.7-1.5,11.5-2.4,17.3-3.1c4.9-0.5,9.7-0.9,14.6-0.7c3.6,0.1,7.1,0.3,10.6,1.3c-0.3,1.6-0.6,2-2,1.8c-1.4,0-2.8-0.3-4.2-0.4
			c-4.4,0-8.8,0-13.2,0.5c-2.4,0.3-4.7,0.7-7,1C68.9,5,64,6.4,59.3,8c-7.6,2.6-14.6,6.2-21.1,10.8c-8.1,5.9-15,12.9-19.8,21.7
			c-2.2,4.1-3.8,8.4-4.5,13c-0.5,3.2-0.5,6.5-0.3,9.7c0.3,4,1.2,7.8,2.5,11.7c1.5,4.1,3.7,7.8,6.6,11c4.4,5,9.8,8.4,15.9,10.9
			c5.5,2.3,11.3,3.7,17.2,4.4c1.8,0.2,3.6,0.6,5.5,0.7c1.6,0.1,2.2,0.2,2.7-1.8c1.8-7,4.6-13.6,8.2-19.8C76.6,72.8,82,66,88.1,59.6
			c6.3-6.8,13.1-13,20.4-18.9c6.5-5.3,13.3-10.2,20.5-14.6c8-5,16.4-9.2,25.1-12.7c6.8-2.8,13.8-4.8,20.9-6.3
			c4.5-1,9.1-1.6,13.7-1.4c4.7,0.2,9.5,0.7,13.9,2.9c6.1,3,9,8,9.4,14.7c0.4,6.4-2.3,11.3-6,16.1c-3.3,4.3-7.3,8.1-11.5,11.7
			c-9.3,7.8-19.4,14.5-29.8,20.7c-7.7,4.5-15.5,8.9-23.4,13.2c-8.4,4.7-17.2,8.8-26.2,12.3c-7.9,3-16,5.4-24.3,6.9
			c-2.6,0.5-5.1,0.8-7.8,1c-1.2,0.1-1.9,0.6-2.4,1.7c-2.2,4.7-4,9.5-4.8,14.6c-0.9,5.1-0.9,10.2,1.4,15.1c2,4.5,5.5,7.4,10.1,9.1
			c5.3,2.1,10.9,2.1,16.6,1.3c11.4-1.5,21.5-6.3,31.3-12.2c10.9-6.6,21-14.4,31-22.4c9.2-7.3,18.2-14.7,27.4-22
			c3.1-2.5,6.4-4.7,9.8-7c2.5-1.5,5.2-2.7,8.2-3.1c0.5,0,1-0.1,1.4,0c1,0.3,1.3,1.3,0.5,2.1c-0.4,0.4-1,0.7-1.5,0.9
			c-8.3,3.3-14,9.5-18.8,16.7c-4,6-6.4,12.6-9.1,19.1c-4.9,12.1-11,23.4-18.3,34.2c-4.8,6.9-9.8,13.6-15.5,19.7
			c-8.4,9.3-17.6,17.8-27.9,25c-7.9,5.6-16.3,10.4-25.2,14.2c-5.5,2.4-11,4.4-16.9,5.6c-3.6,0.8-7.3,1.6-10.9,2.3
			c-2.5,0.4-5.1,0.4-7.7,0.6c-4,0.4-8,0.2-11.9-0.4c-8.5-1.3-15.9-4.6-21.8-11c-4.8-5.2-7.4-11.5-8.5-18.5
			c-2.3-14.6,5.7-29.6,18.8-36.3c3.9-2,8.2-3.1,12.6-3.5c3.8-0.4,7.3,0,10.6,1.5c3.6,1.7,6.4,4.2,7.7,8c1.9,5.4,0.3,11.8-5,14.4
			c-3.1,1.5-6.2,1.3-9.1-0.6c-3.1-2-4.1-6.1-1.8-9.9c0.7-1.4,2-2.4,3.1-3.4C56.9,160.6,57.4,160.3,58.1,159.8 M84,100.6
			c0.6,0.1,0.8,0.2,1,0.2c4.8-1,9.7-2,14.4-3.2c4.3-1.1,8.5-2.3,12.6-3.8c12.6-4.5,24.6-10.4,36.1-17.4
			c10.9-6.6,21.2-13.8,30.7-22.1c6.3-5.6,12.1-11.5,16.7-18.6c3.2-4.8,5.7-10.1,5.4-16.2c-0.3-3.7-1.9-6.6-5.3-8.2
			c-2.8-1.4-5.9-1.8-9-1.6c-3.8,0.3-7.3,1.4-10.8,2.6c-5.7,2.2-11.3,5-16.5,8.1c-9.6,5.9-18.4,12.7-26.6,20.2
			c-4.4,4.1-8.6,8.4-12.9,12.7c-2.1,2.2-4.2,4.5-6.2,6.7c-6.3,7.1-12.2,14.3-17.8,21.8c-4,5.5-7.7,11-11,16.8
			C84.6,99.4,84.3,99.9,84,100.6"/>
		<path class="st0" d="M689.8,84.2c-1.3,0.3-2.6,0.7-3.9,0.8c-5,0.5-6.5-3.5-5.5-6.9c1.3-4.9,4.3-8.7,9.2-10.6
			c1.8-0.8,3.8-1,5.8-0.8c3.3,0.4,5.5,3,5.7,6.4c0.2,3-0.7,5.6-2.4,8.1c-2.2,3.4-5,6.1-8.2,8.4c-2.9,2.1-6.2,3.9-9.3,5.7
			c-0.7,0.3-1.7,0.5-2.5,0.5c-0.4,0-1.1-0.3-1.2-0.7c-0.1-0.4,0-1.1,0.4-1.5c0.4-0.6,1.1-0.9,1.8-1.3c2.9-2,5.8-3.9,8.7-6
			c0.7-0.4,1.3-1.3,1.9-1.9C690,84.5,689.9,84.4,689.8,84.2"/>
	</g>
	<g>
		<path class="st1" d="M20.8,305.8c0-3.5,2.9-6.2,7.1-6.2c4.1,0,7,2.7,7,6.2c0,3.6-2.9,6.2-7,6.2C23.7,311.9,20.8,309.3,20.8,305.8z
			"/>
		<path class="st1" d="M46.8,305.8c0-3.5,2.9-6.2,7.1-6.2c4.1,0,7,2.7,7,6.2c0,3.6-2.9,6.2-7,6.2C49.6,311.9,46.8,309.3,46.8,305.8z
			"/>
		<path class="st1" d="M73.2,305.8c0-3.5,2.9-6.2,7.1-6.2c4.1,0,7,2.7,7,6.2c0,3.6-2.9,6.2-7,6.2C76.1,311.9,73.2,309.3,73.2,305.8z
			"/>
		<path class="st1" d="M161.6,295.3c0,10.3-9.7,17.4-28.2,17.4c-13.1,0-23.8-3.7-31.8-10.5l6.8-8.1c6.4,5.9,14.6,8.6,25.3,8.6
			c10.5,0,15.9-2,15.9-6.3c0-4.3-5.3-5.5-17.3-6.5c-14.9-1.3-28.7-4.5-28.7-15.7c0-10.8,11.6-16.8,27.6-16.8
			c11.4,0,21.2,2.8,27.8,7.9l-6.5,8.2c-5.7-4.4-12.8-6.2-21.2-6.2c-7.1-0.1-15.7,1.2-15.7,5.9c0,4.5,7.4,4.9,17.8,5.7
			C149.9,280.3,161.6,283.8,161.6,295.3z"/>
		<path class="st1" d="M238.9,259v52H227v-21.2h-35.4V311h-11.9v-52h11.9v20.4H227V259H238.9z"/>
		<path class="st1" d="M304.2,300h-31.4l-5.6,11h-12.7l27.6-52h13l27.6,52h-12.9L304.2,300z M299.2,290.4l-10.8-21.2l-10.8,21.2
			H299.2z"/>
		<path class="st1" d="M386.8,300.8V311h-48.7v-52h11.9v41.7H386.8z"/>
		<path class="st1" d="M452.3,300.8V311h-48.7v-52h11.9v41.7H452.3z"/>
		<path class="st1" d="M577.7,259l-19,52h-12.1l-13.7-39.2L519.1,311h-12l-19-52h12.5l12.8,38.5l13.9-38.5h11.5l13.8,38.5l12.9-38.5
			H577.7z"/>
		<path class="st1" d="M646.1,301.1v10h-53.6v-52h52.8v10h-41v10.7h34.2v10h-34.2v11.4H646.1z"/>
		<path class="st1" d="M683.7,278.3c12.4-1.2,20.1-3,20.1-8.9c0-5.6-7.2-7.2-14.2-7.2c-8.9,0-16.3,3.3-21.9,9.7l-7.6-7.6
			c6.6-7.2,16.3-12.7,29.7-12.7c13.6,0,27.7,5.6,27.7,17.6c0,10-9.9,15.3-23.2,16.3v8.1h-10.6V278.3z M680.9,306.3
			c0-4,3.3-7.1,8-7.1c4.6,0,7.9,3.1,7.9,7.1c0,4-3.3,7-7.9,7C684.2,313.3,680.9,310.4,680.9,306.3z"/>
	</g>
</g>
</svg>
